# Exported from Wings 3D 0.98.32a
mtllib torus.mtl
o torus1
#128 vertices, 256 faces
v 2.00038470 -2.6281061e-19 7.3586970e-18
v 1.84811448 -2.6281061e-19 0.76551408
v 1.41448559 -2.6281061e-19 1.41448559
v 0.76551408 -2.6281061e-19 1.84811448
v 1.4000490e-16 -2.6281061e-19 2.00038470
v -0.76551408 -2.6281061e-19 1.84811448
v -1.41448559 -2.6281061e-19 1.41448559
v -1.84811448 -2.6281061e-19 0.76551408
v -2.00038470 -2.6281061e-19 2.5232708e-16
v -1.84811448 -2.6281061e-19 -0.76551408
v -1.41448559 -2.6281061e-19 -1.41448559
v -0.76551408 -2.6281061e-19 -1.84811448
v -3.4993187e-16 -2.6281061e-19 -2.00038470
v 0.76551408 -2.6281061e-19 -1.84811448
v 1.41448559 -2.6281061e-19 -1.41448559
v 1.84811448 -2.6281061e-19 -0.76551408
v 1.91237029 0.21248559 7.3586970e-18
v 1.76679977 0.21248559 0.73183243
v 1.35225000 0.21248559 1.35225000
v 0.73183243 0.21248559 1.76679977
v 1.3461575e-16 0.21248559 1.91237029
v -0.73183243 0.21248559 1.76679977
v -1.35225000 0.21248559 1.35225000
v -1.76679977 0.21248559 0.73183243
v -1.91237029 0.21248559 2.4154878e-16
v -1.76679977 0.21248559 -0.73183243
v -1.35225000 0.21248559 -1.35225000
v -0.73183243 0.21248559 -1.76679977
v -3.3376441e-16 0.21248559 -1.91237029
v 0.73183243 0.21248559 -1.76679977
v 1.35225000 0.21248559 -1.35225000
v 1.76679977 0.21248559 -0.73183243
v 1.69988470 0.30050000 7.3586970e-18
v 1.57048868 0.30050000 0.65051771
v 1.20200000 0.30050000 1.20200000
v 0.65051771 0.30050000 1.57048868
v 1.2160519e-16 0.30050000 1.69988470
v -0.65051771 0.30050000 1.57048868
v -1.20200000 0.30050000 1.20200000
v -1.57048868 0.30050000 0.65051771
v -1.69988470 0.30050000 2.1552766e-16
v -1.57048868 0.30050000 -0.65051771
v -1.20200000 0.30050000 -1.20200000
v -0.65051771 0.30050000 -1.57048868
v -2.9473273e-16 0.30050000 -1.69988470
v 0.65051771 0.30050000 -1.57048868
v 1.20200000 0.30050000 -1.20200000
v 1.57048868 0.30050000 -0.65051771
v 1.48739911 0.21248559 7.3586970e-18
v 1.37417760 0.21248559 0.56920300
v 1.05175000 0.21248559 1.05175000
v 0.56920300 0.21248559 1.37417760
v 1.0859463e-16 0.21248559 1.48739911
v -0.56920300 0.21248559 1.37417760
v -1.05175000 0.21248559 1.05175000
v -1.37417760 0.21248559 0.56920300
v -1.48739911 0.21248559 1.8950654e-16
v -1.37417760 0.21248559 -0.56920300
v -1.05175000 0.21248559 -1.05175000
v -0.56920300 0.21248559 -1.37417760
v -2.5570105e-16 0.21248559 -1.48739911
v 0.56920300 0.21248559 -1.37417760
v 1.05175000 0.21248559 -1.05175000
v 1.37417760 0.21248559 -0.56920300
v 1.39938470 3.6536610e-17 7.3586970e-18
v 1.29286288 3.6536610e-17 0.53552134
v 0.98951441 3.6536610e-17 0.98951441
v 0.53552134 3.6536610e-17 1.29286288
v 1.0320548e-16 3.6536610e-17 1.39938470
v -0.53552134 3.6536610e-17 1.29286288
v -0.98951441 3.6536610e-17 0.98951441
v -1.29286288 3.6536610e-17 0.53552134
v -1.39938470 3.6536610e-17 1.7872824e-16
v -1.29286288 3.6536610e-17 -0.53552134
v -0.98951441 3.6536610e-17 -0.98951441
v -0.53552134 3.6536610e-17 -1.29286288
v -2.3953360e-16 3.6536610e-17 -1.39938470
v 0.53552134 3.6536610e-17 -1.29286288
v 0.98951441 3.6536610e-17 -0.98951441
v 1.29286288 3.6536610e-17 -0.53552134
v 1.48739911 -0.21248559 7.3586970e-18
v 1.37417760 -0.21248559 0.56920300
v 1.05175000 -0.21248559 1.05175000
v 0.56920300 -0.21248559 1.37417760
v 1.0859463e-16 -0.21248559 1.48739911
v -0.56920300 -0.21248559 1.37417760
v -1.05175000 -0.21248559 1.05175000
v -1.37417760 -0.21248559 0.56920300
v -1.48739911 -0.21248559 1.8950654e-16
v -1.37417760 -0.21248559 -0.56920300
v -1.05175000 -0.21248559 -1.05175000
v -0.56920300 -0.21248559 -1.37417760
v -2.5570105e-16 -0.21248559 -1.48739911
v 0.56920300 -0.21248559 -1.37417760
v 1.05175000 -0.21248559 -1.05175000
v 1.37417760 -0.21248559 -0.56920300
v 1.69988470 -0.30050000 7.3586970e-18
v 1.57048868 -0.30050000 0.65051771
v 1.20200000 -0.30050000 1.20200000
v 0.65051771 -0.30050000 1.57048868
v 1.2160519e-16 -0.30050000 1.69988470
v -0.65051771 -0.30050000 1.57048868
v -1.20200000 -0.30050000 1.20200000
v -1.57048868 -0.30050000 0.65051771
v -1.69988470 -0.30050000 2.1552766e-16
v -1.57048868 -0.30050000 -0.65051771
v -1.20200000 -0.30050000 -1.20200000
v -0.65051771 -0.30050000 -1.57048868
v -2.9473273e-16 -0.30050000 -1.69988470
v 0.65051771 -0.30050000 -1.57048868
v 1.20200000 -0.30050000 -1.20200000
v 1.57048868 -0.30050000 -0.65051771
v 1.91237029 -0.21248559 7.3586970e-18
v 1.76679977 -0.21248559 0.73183243
v 1.35225000 -0.21248559 1.35225000
v 0.73183243 -0.21248559 1.76679977
v 1.3461575e-16 -0.21248559 1.91237029
v -0.73183243 -0.21248559 1.76679977
v -1.35225000 -0.21248559 1.35225000
v -1.76679977 -0.21248559 0.73183243
v -1.91237029 -0.21248559 2.4154878e-16
v -1.76679977 -0.21248559 -0.73183243
v -1.35225000 -0.21248559 -1.35225000
v -0.73183243 -0.21248559 -1.76679977
v -3.3376441e-16 -0.21248559 -1.91237029
v 0.73183243 -0.21248559 -1.76679977
v 1.35225000 -0.21248559 -1.35225000
v 1.76679977 -0.21248559 -0.73183243
vn 1.00000000 0.0000000e+0 0.0000000e+0
vn 0.92387953 0.0000000e+0 0.38268343
vn 0.70710678 7.6363749e-18 0.70710678
vn 0.38268343 0.0000000e+0 0.92387953
vn 3.0545499e-17 7.6363749e-18 1.00000000
vn -0.38268343 0.0000000e+0 0.92387953
vn -0.70710678 0.0000000e+0 0.70710678
vn -0.92387953 0.0000000e+0 0.38268343
vn -1.00000000 7.6363749e-18 7.6363749e-18
vn -0.92387953 0.0000000e+0 -0.38268343
vn -0.70710678 7.6363749e-18 -0.70710678
vn -0.38268343 0.0000000e+0 -0.92387953
vn -7.6363749e-17 0.0000000e+0 -1.00000000
vn 0.38268343 0.0000000e+0 -0.92387953
vn 0.70710678 0.0000000e+0 -0.70710678
vn 0.92387953 0.0000000e+0 -0.38268343
vn 0.70509498 0.70911288 7.5839664e-18
vn 0.65142282 0.70911288 0.26982817
vn 0.49857744 0.70911288 0.49857744
vn 0.26982817 0.70911288 0.65142282
vn 2.6543882e-17 0.70911288 0.70509498
vn -0.26982817 0.70911288 0.65142282
vn -0.49857744 0.70911288 0.49857744
vn -0.65142282 0.70911288 0.26982817
vn -0.70509498 0.70911288 3.0335866e-17
vn -0.65142282 0.70911288 -0.26982817
vn -0.49857744 0.70911288 -0.49857744
vn -0.26982817 0.70911288 -0.65142282
vn -5.6879748e-17 0.70911288 -0.70509498
vn 0.26982817 0.70911288 -0.65142282
vn 0.49857744 0.70911288 -0.49857744
vn 0.65142282 0.70911288 -0.26982817
vn -4.9865335e-9 1.00000000 0.0000000e+0
vn -9.9168512e-9 1.00000000 -4.2994062e-9
vn -4.1369343e-9 1.00000000 -4.1369343e-9
vn -4.2994062e-9 1.00000000 -9.9168511e-9
vn -3.7661663e-18 1.00000000 -4.9865332e-9
vn 4.2994062e-9 1.00000000 -9.9168511e-9
vn 4.1369343e-9 1.00000000 -4.1369343e-9
vn 9.9168514e-9 1.00000000 -4.2994062e-9
vn 4.9865334e-9 1.00000000 -3.3895497e-17
vn 9.9168510e-9 1.00000000 4.2994061e-9
vn 4.1369343e-9 1.00000000 4.1369343e-9
vn 4.2994062e-9 1.00000000 9.9168511e-9
vn -3.7661663e-18 1.00000000 4.9865332e-9
vn -4.2994062e-9 1.00000000 9.9168511e-9
vn -4.1369343e-9 1.00000000 4.1369343e-9
vn -9.9168512e-9 1.00000000 4.2994062e-9
vn -0.70509498 0.70911288 0.0000000e+0
vn -0.65142281 0.70911288 -0.26982816
vn -0.49857744 0.70911288 -0.49857744
vn -0.26982816 0.70911288 -0.65142281
vn -3.7919832e-17 0.70911288 -0.70509498
vn 0.26982816 0.70911288 -0.65142281
vn 0.49857744 0.70911288 -0.49857744
vn 0.65142281 0.70911288 -0.26982816
vn 0.70509498 0.70911288 -2.2751899e-17
vn 0.65142281 0.70911288 0.26982816
vn 0.49857744 0.70911288 0.49857744
vn 0.26982816 0.70911288 0.65142281
vn 4.5503798e-17 0.70911288 0.70509498
vn -0.26982816 0.70911288 0.65142281
vn -0.49857744 0.70911288 0.49857744
vn -0.65142281 0.70911288 0.26982816
vn -1.00000000 -7.6363749e-18 0.0000000e+0
vn -0.92387953 7.6363750e-17 -0.38268343
vn -0.70710678 -2.2909125e-17 -0.70710678
vn -0.38268343 6.1091000e-17 -0.92387953
vn -4.9636437e-17 4.5818250e-17 -1.00000000
vn 0.38268343 6.1091000e-17 -0.92387953
vn 0.70710678 -3.0545500e-17 -0.70710678
vn 0.92387953 6.1091000e-17 -0.38268343
vn 1.00000000 -5.3454625e-17 -4.9636437e-17
vn 0.92387953 4.5818250e-17 0.38268343
vn 0.70710678 -3.0545500e-17 0.70710678
vn 0.38268343 7.6363750e-17 0.92387953
vn 6.4909187e-17 6.8727374e-17 1.00000000
vn -0.38268343 7.6363750e-17 0.92387953
vn -0.70710678 -2.2909125e-17 0.70710678
vn -0.92387953 7.6363750e-17 0.38268343
vn -0.70509498 -0.70911288 -3.7919832e-18
vn -0.65142281 -0.70911288 -0.26982816
vn -0.49857744 -0.70911288 -0.49857744
vn -0.26982816 -0.70911288 -0.65142281
vn -4.5503798e-17 -0.70911288 -0.70509498
vn 0.26982816 -0.70911288 -0.65142281
vn 0.49857744 -0.70911288 -0.49857744
vn 0.65142281 -0.70911288 -0.26982816
vn 0.70509498 -0.70911288 -5.6879748e-17
vn 0.65142281 -0.70911288 0.26982816
vn 0.49857744 -0.70911288 0.49857744
vn 0.26982816 -0.70911288 0.65142281
vn 4.9295782e-17 -0.70911288 0.70509498
vn -0.26982816 -0.70911288 0.65142281
vn -0.49857744 -0.70911288 0.49857744
vn -0.65142281 -0.70911288 0.26982816
vn -4.9865335e-9 -1.00000000 0.0000000e+0
vn -9.9168512e-9 -1.00000000 -4.2994062e-9
vn -4.1369343e-9 -1.00000000 -4.1369343e-9
vn -4.2994062e-9 -1.00000000 -9.9168510e-9
vn -3.7661663e-18 -1.00000000 -4.9865332e-9
vn 4.2994062e-9 -1.00000000 -9.9168510e-9
vn 4.1369343e-9 -1.00000000 -4.1369343e-9
vn 9.9168514e-9 -1.00000000 -4.2994062e-9
vn 4.9865334e-9 -1.00000000 -5.2726328e-17
vn 9.9168511e-9 -1.00000000 4.2994061e-9
vn 4.1369343e-9 -1.00000000 4.1369343e-9
vn 4.2994062e-9 -1.00000000 9.9168510e-9
vn -1.8830832e-18 -1.00000000 4.9865332e-9
vn -4.2994062e-9 -1.00000000 9.9168510e-9
vn -4.1369343e-9 -1.00000000 4.1369343e-9
vn -9.9168512e-9 -1.00000000 4.2994062e-9
vn 0.70509498 -0.70911288 0.0000000e+0
vn 0.65142282 -0.70911288 0.26982817
vn 0.49857744 -0.70911288 0.49857744
vn 0.26982817 -0.70911288 0.65142282
vn 2.2751899e-17 -0.70911288 0.70509498
vn -0.26982817 -0.70911288 0.65142282
vn -0.49857744 -0.70911288 0.49857744
vn -0.65142282 -0.70911288 0.26982817
vn -0.70509498 -0.70911288 7.5839664e-18
vn -0.65142282 -0.70911288 -0.26982817
vn -0.49857744 -0.70911288 -0.49857744
vn -0.26982817 -0.70911288 -0.65142282
vn -6.0671731e-17 -0.70911288 -0.70509498
vn 0.26982817 -0.70911288 -0.65142282
vn 0.49857744 -0.70911288 -0.49857744
vn 0.65142282 -0.70911288 -0.26982817
g torus1_default
usemtl default
f 1//1 18//18 2//2
f 1//1 32//32 17//17
f 1//1 114//114 113//113
f 1//1 128//128 16//16
f 2//2 18//18 3//3
f 2//2 114//114 1//1
f 3//3 18//18 19//19
f 3//3 20//20 4//4
f 3//3 114//114 2//2
f 3//3 116//116 115//115
f 4//4 20//20 5//5
f 4//4 116//116 3//3
f 5//5 20//20 21//21
f 5//5 22//22 6//6
f 5//5 116//116 4//4
f 5//5 118//118 117//117
f 6//6 22//22 7//7
f 6//6 118//118 5//5
f 7//7 22//22 23//23
f 7//7 24//24 8//8
f 7//7 118//118 6//6
f 7//7 120//120 119//119
f 8//8 24//24 9//9
f 8//8 120//120 7//7
f 9//9 24//24 25//25
f 9//9 26//26 10//10
f 9//9 120//120 8//8
f 9//9 122//122 121//121
f 10//10 26//26 11//11
f 10//10 122//122 9//9
f 11//11 26//26 27//27
f 11//11 28//28 12//12
f 11//11 122//122 10//10
f 11//11 124//124 123//123
f 12//12 28//28 13//13
f 12//12 124//124 11//11
f 13//13 28//28 29//29
f 13//13 30//30 14//14
f 13//13 124//124 12//12
f 13//13 126//126 125//125
f 14//14 30//30 15//15
f 14//14 126//126 13//13
f 15//15 30//30 31//31
f 15//15 32//32 16//16
f 15//15 126//126 14//14
f 15//15 128//128 127//127
f 16//16 32//32 1//1
f 16//16 128//128 15//15
f 17//17 18//18 1//1
f 17//17 33//33 18//18
f 18//18 33//33 34//34
f 18//18 35//35 19//19
f 19//19 20//20 3//3
f 19//19 35//35 20//20
f 20//20 35//35 36//36
f 20//20 37//37 21//21
f 21//21 22//22 5//5
f 21//21 37//37 22//22
f 22//22 37//37 38//38
f 22//22 39//39 23//23
f 23//23 24//24 7//7
f 23//23 39//39 24//24
f 24//24 39//39 40//40
f 24//24 41//41 25//25
f 25//25 26//26 9//9
f 25//25 41//41 26//26
f 26//26 41//41 42//42
f 26//26 43//43 27//27
f 27//27 28//28 11//11
f 27//27 43//43 28//28
f 28//28 43//43 44//44
f 28//28 45//45 29//29
f 29//29 30//30 13//13
f 29//29 45//45 30//30
f 30//30 45//45 46//46
f 30//30 47//47 31//31
f 31//31 32//32 15//15
f 31//31 47//47 32//32
f 32//32 33//33 17//17
f 32//32 47//47 48//48
f 33//33 50//50 34//34
f 33//33 64//64 49//49
f 34//34 35//35 18//18
f 34//34 50//50 35//35
f 35//35 50//50 51//51
f 35//35 52//52 36//36
f 36//36 37//37 20//20
f 36//36 52//52 37//37
f 37//37 52//52 53//53
f 37//37 54//54 38//38
f 38//38 39//39 22//22
f 38//38 54//54 39//39
f 39//39 54//54 55//55
f 39//39 56//56 40//40
f 40//40 41//41 24//24
f 40//40 56//56 41//41
f 41//41 56//56 57//57
f 41//41 58//58 42//42
f 42//42 43//43 26//26
f 42//42 58//58 43//43
f 43//43 58//58 59//59
f 43//43 60//60 44//44
f 44//44 45//45 28//28
f 44//44 60//60 45//45
f 45//45 60//60 61//61
f 45//45 62//62 46//46
f 46//46 47//47 30//30
f 46//46 62//62 47//47
f 47//47 62//62 63//63
f 47//47 64//64 48//48
f 48//48 33//33 32//32
f 48//48 64//64 33//33
f 49//49 50//50 33//33
f 49//49 65//65 50//50
f 50//50 65//65 66//66
f 50//50 67//67 51//51
f 51//51 52//52 35//35
f 51//51 67//67 52//52
f 52//52 67//67 68//68
f 52//52 69//69 53//53
f 53//53 54//54 37//37
f 53//53 69//69 54//54
f 54//54 69//69 70//70
f 54//54 71//71 55//55
f 55//55 56//56 39//39
f 55//55 71//71 56//56
f 56//56 71//71 72//72
f 56//56 73//73 57//57
f 57//57 58//58 41//41
f 57//57 73//73 58//58
f 58//58 73//73 74//74
f 58//58 75//75 59//59
f 59//59 60//60 43//43
f 59//59 75//75 60//60
f 60//60 75//75 76//76
f 60//60 77//77 61//61
f 61//61 62//62 45//45
f 61//61 77//77 62//62
f 62//62 77//77 78//78
f 62//62 79//79 63//63
f 63//63 64//64 47//47
f 63//63 79//79 64//64
f 64//64 65//65 49//49
f 64//64 79//79 80//80
f 65//65 82//82 66//66
f 65//65 96//96 81//81
f 66//66 67//67 50//50
f 66//66 82//82 67//67
f 67//67 82//82 83//83
f 67//67 84//84 68//68
f 68//68 69//69 52//52
f 68//68 84//84 69//69
f 69//69 84//84 85//85
f 69//69 86//86 70//70
f 70//70 71//71 54//54
f 70//70 86//86 71//71
f 71//71 86//86 87//87
f 71//71 88//88 72//72
f 72//72 73//73 56//56
f 72//72 88//88 73//73
f 73//73 88//88 89//89
f 73//73 90//90 74//74
f 74//74 75//75 58//58
f 74//74 90//90 75//75
f 75//75 90//90 91//91
f 75//75 92//92 76//76
f 76//76 77//77 60//60
f 76//76 92//92 77//77
f 77//77 92//92 93//93
f 77//77 94//94 78//78
f 78//78 79//79 62//62
f 78//78 94//94 79//79
f 79//79 94//94 95//95
f 79//79 96//96 80//80
f 80//80 65//65 64//64
f 80//80 96//96 65//65
f 81//81 82//82 65//65
f 81//81 97//97 82//82
f 82//82 97//97 98//98
f 82//82 99//99 83//83
f 83//83 84//84 67//67
f 83//83 99//99 84//84
f 84//84 99//99 100//100
f 84//84 101//101 85//85
f 85//85 86//86 69//69
f 85//85 101//101 86//86
f 86//86 101//101 102//102
f 86//86 103//103 87//87
f 87//87 88//88 71//71
f 87//87 103//103 88//88
f 88//88 103//103 104//104
f 88//88 105//105 89//89
f 89//89 90//90 73//73
f 89//89 105//105 90//90
f 90//90 105//105 106//106
f 90//90 107//107 91//91
f 91//91 92//92 75//75
f 91//91 107//107 92//92
f 92//92 107//107 108//108
f 92//92 109//109 93//93
f 93//93 94//94 77//77
f 93//93 109//109 94//94
f 94//94 109//109 110//110
f 94//94 111//111 95//95
f 95//95 96//96 79//79
f 95//95 111//111 96//96
f 96//96 97//97 81//81
f 96//96 111//111 112//112
f 97//97 114//114 98//98
f 97//97 128//128 113//113
f 98//98 99//99 82//82
f 98//98 114//114 99//99
f 99//99 114//114 115//115
f 99//99 116//116 100//100
f 100//100 101//101 84//84
f 100//100 116//116 101//101
f 101//101 116//116 117//117
f 101//101 118//118 102//102
f 102//102 103//103 86//86
f 102//102 118//118 103//103
f 103//103 118//118 119//119
f 103//103 120//120 104//104
f 104//104 105//105 88//88
f 104//104 120//120 105//105
f 105//105 120//120 121//121
f 105//105 122//122 106//106
f 106//106 107//107 90//90
f 106//106 122//122 107//107
f 107//107 122//122 123//123
f 107//107 124//124 108//108
f 108//108 109//109 92//92
f 108//108 124//124 109//109
f 109//109 124//124 125//125
f 109//109 126//126 110//110
f 110//110 111//111 94//94
f 110//110 126//126 111//111
f 111//111 126//126 127//127
f 111//111 128//128 112//112
f 112//112 97//97 96//96
f 112//112 128//128 97//97
f 113//113 114//114 97//97
f 113//113 128//128 1//1
f 115//115 114//114 3//3
f 115//115 116//116 99//99
f 117//117 116//116 5//5
f 117//117 118//118 101//101
f 119//119 118//118 7//7
f 119//119 120//120 103//103
f 121//121 120//120 9//9
f 121//121 122//122 105//105
f 123//123 122//122 11//11
f 123//123 124//124 107//107
f 125//125 124//124 13//13
f 125//125 126//126 109//109
f 127//127 126//126 15//15
f 127//127 128//128 111//111
